<svg xmlns="http://www.w3.org/2000/svg" xmlns:xlink="http://www.w3.org/1999/xlink" width="334.846" height="61.406" viewBox="0 0 334.846 61.406">
  <defs>
    <linearGradient id="linear-gradient" x1="0.5" x2="0.5" y2="1" gradientUnits="objectBoundingBox">
      <stop offset="0" stop-color="#dfc196"/>
      <stop offset="0.473" stop-color="#fdebc4"/>
      <stop offset="1" stop-color="#d1ac7f"/>
    </linearGradient>
    <linearGradient id="linear-gradient-2" x1="0.5" y1="1.31" x2="0.5" y2="-0.365" gradientUnits="objectBoundingBox">
      <stop offset="0.15" stop-color="#d1ac7f"/>
      <stop offset="0.507" stop-color="#ffeec7"/>
      <stop offset="0.85" stop-color="#d1ac7f"/>
    </linearGradient>
    <linearGradient id="linear-gradient-3" x1="0.5" y1="1.274" x2="0.5" y2="-0.326" xlink:href="#linear-gradient-2"/>
    <linearGradient id="linear-gradient-4" x1="0.5" y1="1.31" x2="0.5" y2="-0.365" xlink:href="#linear-gradient-2"/>
    <linearGradient id="linear-gradient-5" x1="0.5" y1="1" x2="0.5" y2="-0.256" xlink:href="#linear-gradient-2"/>
    <linearGradient id="linear-gradient-6" x1="0.5" y1="1.022" x2="0.5" y2="-0.021" xlink:href="#linear-gradient-2"/>
    <linearGradient id="linear-gradient-7" x1="0.5" y1="1" x2="0.5" y2="0" xlink:href="#linear-gradient-2"/>
  </defs>
  <g id="Group_53" data-name="Group 53" transform="translate(-255 -25)">
    <g id="good_allo" transform="translate(455 49.75)">
      <path id="Union_1" data-name="Union 1" d="M99.466,27V16.882h11.1v2.246H102.3v1.8H110.1V22.8H102.3v1.95h8.348V27ZM2.835,27a3.124,3.124,0,0,1-2.02-.653A1.977,1.977,0,0,1,0,24.752V19.116a1.988,1.988,0,0,1,.836-1.545,2.985,2.985,0,0,1,1.956-.688h6.8a3.246,3.246,0,0,1,2.076.655,2,2,0,0,1,.83,1.627v1.1H9.68a.986.986,0,0,0-.532-.8,2.083,2.083,0,0,0-1.184-.355H4.535a2.01,2.01,0,0,0-1.2.359,1,1,0,0,0-.5.795v3.348a.94.94,0,0,0,.482.837,2.2,2.2,0,0,0,1.191.3H7.965a2.151,2.151,0,0,0,1.227-.329.958.958,0,0,0,.489-.807H6.222V21.6H12.5v3.157a1.929,1.929,0,0,1-.872,1.6A3.258,3.258,0,0,1,9.638,27Zm123.134-.028V24.755H128.8v2.218Zm-11.338,0a3.13,3.13,0,0,1-2.02-.653,1.988,1.988,0,0,1-.815-1.607V23.422H114.6v.2a.929.929,0,0,0,.448.779,1.768,1.768,0,0,0,1.046.315h4.794q.983,0,.982-.856a.928.928,0,0,0-.269-.688.966.966,0,0,0-.708-.266H114.66a3.228,3.228,0,0,1-2.041-.56,2.53,2.53,0,0,1-.823-2.1V19.136a1.945,1.945,0,0,1,.858-1.61,3.247,3.247,0,0,1,2.006-.643h7.285a2.963,2.963,0,0,1,2.005.643,2.034,2.034,0,0,1,.744,1.607v1.1h-2.665a.951.951,0,0,0-.439-.786,1.817,1.817,0,0,0-1.105-.322h-4.862a1.2,1.2,0,0,0-.744.211.862.862,0,0,0-.275.729.808.808,0,0,0,.326.716,1.212,1.212,0,0,0,.694.182h6.052a3.58,3.58,0,0,1,2.162.625,1.934,1.934,0,0,1,.858,1.635v1.487a2,2,0,0,1-.779,1.628,3.166,3.166,0,0,1-2.056.632Zm-28.97,0V16.882h9.1a3.294,3.294,0,0,1,2.091.637,1.949,1.949,0,0,1,.815,1.591v.883A2.809,2.809,0,0,1,97.5,21.1a1.336,1.336,0,0,1-.865.728q1.544.8,1.544,1.766v1.219a1.863,1.863,0,0,1-.878,1.611,3.39,3.39,0,0,1-1.97.547ZM88.5,24.741h5.131a2.78,2.78,0,0,0,1.4-.225.755.755,0,0,0,.319-.66.7.7,0,0,0-.553-.729Q94.676,23.1,93.655,23H88.5Zm0-3.8h4.62a3.653,3.653,0,0,0,1.34-.168.714.714,0,0,0,.375-.73.749.749,0,0,0-.4-.751,3.306,3.306,0,0,0-1.319-.19H88.5Zm-17.56,6.035-5.343-10.09h3.2l4.279,7.564a.186.186,0,0,0,.312,0l4.167-7.564h3.373l-5.641,10.09Zm-26.433,0V16.882h10.46a3.184,3.184,0,0,1,2.056.659,2,2,0,0,1,.822,1.611v5.592a1.91,1.91,0,0,1-.865,1.59,3.273,3.273,0,0,1-2,.638Zm2.834-2.231h6A1.945,1.945,0,0,0,54.5,24.4a.985.985,0,0,0,.475-.806V20.247a.976.976,0,0,0-.5-.784,1.954,1.954,0,0,0-1.141-.35h-6ZM31.974,26.972a3.15,3.15,0,0,1-2.027-.644,1.959,1.959,0,0,1-.808-1.584V19.111a1.979,1.979,0,0,1,.837-1.542,2.987,2.987,0,0,1,1.956-.687H40.28a3.194,3.194,0,0,1,2.061.652,2,2,0,0,1,.815,1.618v5.592a1.911,1.911,0,0,1-.864,1.59,3.276,3.276,0,0,1-2,.638Zm.51-7.488a1.017,1.017,0,0,0-.51.791v3.317a.955.955,0,0,0,.475.841,2.158,2.158,0,0,0,1.2.308h5.018a1.912,1.912,0,0,0,1.162-.343.988.988,0,0,0,.468-.806V20.247a.977.977,0,0,0-.5-.784,1.92,1.92,0,0,0-1.134-.35H33.675A1.97,1.97,0,0,0,32.485,19.484ZM16.61,26.972a3.151,3.151,0,0,1-2.027-.644,1.958,1.958,0,0,1-.807-1.584V19.111a1.978,1.978,0,0,1,.836-1.542,2.985,2.985,0,0,1,1.956-.687h8.347a3.194,3.194,0,0,1,2.062.652,2,2,0,0,1,.815,1.618v5.592a1.911,1.911,0,0,1-.864,1.59,3.276,3.276,0,0,1-2,.638Zm.51-7.488a1.017,1.017,0,0,0-.51.791v3.317a.955.955,0,0,0,.475.841,2.158,2.158,0,0,0,1.2.308H23.3a1.912,1.912,0,0,0,1.162-.343.988.988,0,0,0,.468-.806V20.247a.977.977,0,0,0-.5-.784,1.922,1.922,0,0,0-1.134-.35H18.311A1.97,1.97,0,0,0,17.121,19.484Zm64.543,7.46V16.84H84.5v10.1ZM2.835,10.16a3.124,3.124,0,0,1-2.02-.653A1.977,1.977,0,0,1,0,7.912V2.276A1.987,1.987,0,0,1,.836.731,2.985,2.985,0,0,1,2.792.042h6.8A3.246,3.246,0,0,1,11.671.7a2,2,0,0,1,.83,1.627v1.1H9.68a.986.986,0,0,0-.532-.8,2.083,2.083,0,0,0-1.184-.355H4.535a2.01,2.01,0,0,0-1.2.359,1,1,0,0,0-.5.795V6.775a.94.94,0,0,0,.482.837,2.2,2.2,0,0,0,1.191.3H7.965a2.151,2.151,0,0,0,1.227-.329.958.958,0,0,0,.489-.807H6.222V4.757H12.5V7.915a1.929,1.929,0,0,1-.872,1.6,3.258,3.258,0,0,1-1.991.645Zm128.676-.028V7.915h2.835v2.218Zm-10.941,0a3.149,3.149,0,0,1-2.027-.644,1.956,1.956,0,0,1-.807-1.584V2.271a1.978,1.978,0,0,1,.836-1.542,2.984,2.984,0,0,1,1.955-.687h6.8a3.266,3.266,0,0,1,2.076.65,1.977,1.977,0,0,1,.829,1.614V3.4h-2.821a.96.96,0,0,0-.532-.776,2.116,2.116,0,0,0-1.183-.346h-3.43a1.97,1.97,0,0,0-1.191.371,1.017,1.017,0,0,0-.51.791V6.753a.955.955,0,0,0,.474.84,2.156,2.156,0,0,0,1.2.309H125.7a2.093,2.093,0,0,0,1.219-.344.982.982,0,0,0,.5-.807h2.821V7.9a1.918,1.918,0,0,1-.872,1.586,3.258,3.258,0,0,1-1.991.645Zm-18.17,0a3.127,3.127,0,0,1-2.019-.653,1.988,1.988,0,0,1-.815-1.607V6.582h2.806v.2a.931.931,0,0,0,.448.779,1.774,1.774,0,0,0,1.046.315h4.8q.981,0,.982-.856a.928.928,0,0,0-.269-.688.968.968,0,0,0-.709-.266h-6.236a3.23,3.23,0,0,1-2.041-.56,2.53,2.53,0,0,1-.822-2.1V2.3a1.945,1.945,0,0,1,.858-1.61,3.246,3.246,0,0,1,2.005-.644h7.285a2.965,2.965,0,0,1,2.005.643,2.036,2.036,0,0,1,.743,1.607V3.4H109.8a.952.952,0,0,0-.439-.786,1.82,1.82,0,0,0-1.106-.322h-4.861a1.2,1.2,0,0,0-.744.21.863.863,0,0,0-.276.73.81.81,0,0,0,.326.716,1.215,1.215,0,0,0,.695.182h6.052a3.581,3.581,0,0,1,2.161.625,1.933,1.933,0,0,1,.857,1.635V7.872a2,2,0,0,1-.779,1.628,3.166,3.166,0,0,1-2.056.632Zm-15.363,0a3.151,3.151,0,0,1-2.028-.644A1.961,1.961,0,0,1,84.2,7.9V.042h2.835v6.71a.955.955,0,0,0,.474.841,2.154,2.154,0,0,0,1.2.309h5.018a1.906,1.906,0,0,0,1.162-.344.989.989,0,0,0,.468-.806V.042h2.863V7.9a1.912,1.912,0,0,1-.865,1.59,3.273,3.273,0,0,1-2,.638Zm-6.916,0V2.624c0-.113-.086-.168-.255-.168a.369.369,0,0,0-.327.168l-3.514,7.508H72.835L68.909,2.456a.239.239,0,0,0-.226-.127c-.17,0-.265.038-.284.112v7.691H65.593V.042h5.272L74.38,6.835l3.1-6.792h5.4v10.09Zm-35.617,0V.042h10.46A3.184,3.184,0,0,1,57.019.7a2,2,0,0,1,.822,1.611V7.9a1.91,1.91,0,0,1-.865,1.59,3.273,3.273,0,0,1-2,.638ZM47.337,7.9h6A1.945,1.945,0,0,0,54.5,7.558a.984.984,0,0,0,.475-.806V3.407a.976.976,0,0,0-.5-.784,1.954,1.954,0,0,0-1.141-.35h-6ZM31.974,10.132a3.15,3.15,0,0,1-2.027-.644A1.959,1.959,0,0,1,29.139,7.9V2.271A1.979,1.979,0,0,1,29.976.729,2.987,2.987,0,0,1,31.932.042H40.28a3.194,3.194,0,0,1,2.061.652,2,2,0,0,1,.815,1.618V7.9a1.911,1.911,0,0,1-.864,1.59,3.276,3.276,0,0,1-2,.638Zm.51-7.488a1.017,1.017,0,0,0-.51.791V6.753a.954.954,0,0,0,.475.84,2.151,2.151,0,0,0,1.2.309h5.018a1.912,1.912,0,0,0,1.162-.343.986.986,0,0,0,.468-.806V3.407a.977.977,0,0,0-.5-.784,1.92,1.92,0,0,0-1.134-.35H33.675A1.97,1.97,0,0,0,32.485,2.644ZM16.61,10.132a3.15,3.15,0,0,1-2.027-.644A1.958,1.958,0,0,1,13.776,7.9V2.271A1.978,1.978,0,0,1,14.612.729,2.985,2.985,0,0,1,16.568.042h8.347a3.194,3.194,0,0,1,2.062.652,2,2,0,0,1,.815,1.618V7.9a1.911,1.911,0,0,1-.864,1.59,3.276,3.276,0,0,1-2,.638Zm.51-7.488a1.017,1.017,0,0,0-.51.791V6.753a.954.954,0,0,0,.475.84,2.151,2.151,0,0,0,1.2.309H23.3a1.912,1.912,0,0,0,1.162-.343.986.986,0,0,0,.468-.806V3.407a.977.977,0,0,0-.5-.784,1.922,1.922,0,0,0-1.134-.35H18.311A1.97,1.97,0,0,0,17.121,2.644Zm96.618,7.46V0h2.834V10.1Z" stroke="rgba(0,0,0,0)" stroke-width="1" fill="url(#linear-gradient)"/>
    </g>
    <g id="logo" transform="translate(255 25)">
      <rect id="Rectangle_38" data-name="Rectangle 38" width="7.144" height="28.652" transform="translate(58.832 23.845)" fill="url(#linear-gradient-2)"/>
      <g id="Group_45" data-name="Group 45" transform="translate(69.182 23.154)">
        <path id="Path_185" data-name="Path 185" d="M903.633,538.716c-2.477,4.5-7.63,5.113-9.011,5.276a22.372,22.372,0,0,1-2.881.2c-5.682,0-8.887-1.908-10.793-3.451a16.716,16.716,0,0,1-2.269-2.394l5.432-3.408a12.767,12.767,0,0,0,1.259,1.218,11.566,11.566,0,0,0,7.02,2.394,7.884,7.884,0,0,0,2.232-.285c.2-.041,3.044-.853,3.044-3.044,0-2.638-3.815-2.72-6.372-3.084a35.612,35.612,0,0,1-4.058-.731,9.7,9.7,0,0,1-5.4-3,6.528,6.528,0,0,1-1.217-2.11,8.994,8.994,0,0,1-.363-2.516,16.574,16.574,0,0,1,.162-1.988,7.883,7.883,0,0,1,2.471-4.586c1.42-1.34,4.221-3,8.928-3a16.641,16.641,0,0,1,9.456,2.841,27.858,27.858,0,0,1,3.166,2.557l-5.276,3.774a10.963,10.963,0,0,0-4.83-3.125,11.154,11.154,0,0,0-2.678-.407c-2.922,0-4.261,1.705-4.261,3.046a2.167,2.167,0,0,0,.61,1.5c.972,1.055,2.556,1.013,5.235,1.42,1.622.243,3.2.568,4.789.932,1.015.2,4.708.934,6.169,4.424a8.566,8.566,0,0,1,.568,3.084,9.214,9.214,0,0,1-1.136,4.464" transform="translate(-878.679 -514.204)" fill="url(#linear-gradient-3)"/>
      </g>
      <path id="Path_186" data-name="Path 186" d="M932.686,544.086V515.434h21.185v5.519H939.831v5.235h13.107v5.438H939.831v6.818h14.047v5.641Z" transform="translate(-833.192 -491.589)" fill="url(#linear-gradient-4)"/>
      <g id="Group_46" data-name="Group 46" transform="translate(37.852 23.172)">
        <path id="Path_187" data-name="Path 187" d="M830.4,535.5a11.971,11.971,0,0,0-7.544-21.269v5.382a6.591,6.591,0,1,1,0,13.182v5.379l20.076,14.253Z" transform="translate(-822.858 -514.235)" fill="url(#linear-gradient-5)"/>
      </g>
      <path id="Path_188" data-name="Path 188" d="M788.1,504.858V472.95l-7.8,23.2-24.882-.059,20.111,14.733-7.555,23.532,20.13-14.392Z" transform="translate(-755.418 -472.95)" fill="url(#linear-gradient-6)"/>
      <path id="Path_189" data-name="Path 189" d="M985.222,515.476v28.652h51.019V515.476Zm19.476,8.463h-7.432v4.239h6.161v4.238h-6.161v7.489h-4.945V519.7H1004.7Zm19.5,15.966-.621-9.1a29.948,29.948,0,0,1,0-3.391h-.057s-.678,2.12-1.131,3.391l-2.119,5.85h-4.239l-2.119-5.85c-.453-1.272-1.13-3.391-1.13-3.391h-.057a30.109,30.109,0,0,1,0,3.391l-.622,9.1h-4.973L1008.8,519.7h5.369l2.939,8.535c.452,1.3,1.017,3.335,1.017,3.335h.056s.566-2.035,1.017-3.335l2.939-8.535h5.369l1.639,20.206Z" transform="translate(-856.241 -491.608)" fill="url(#linear-gradient-7)"/>
    </g>
  </g>
<style xmlns="" type="text/css" id="undefined"/></svg>